<?xml version="1.0" encoding="UTF-8" standalone="no"?>
<svg
   version="1.1"
   width="256"
   height="256"
   viewBox="0 0 488 488"
   id="svg8"
   sodipodi:docname="ddns-gray.svg"
   inkscape:version="1.4.2 (ebf0e940d0, 2025-05-08)"
   xmlns:inkscape="http://www.inkscape.org/namespaces/inkscape"
   xmlns:sodipodi="http://sodipodi.sourceforge.net/DTD/sodipodi-0.dtd"
   xmlns="http://www.w3.org/2000/svg"
   xmlns:svg="http://www.w3.org/2000/svg">
  <defs
     id="defs8">
    <rect
       x="97.30528"
       y="98.093177"
       width="31.51588"
       height="67.168219"
       id="rect11" />
  </defs>
  <sodipodi:namedview
     id="namedview8"
     pagecolor="#ffffff"
     bordercolor="#000000"
     borderopacity="0.25"
     inkscape:showpageshadow="2"
     inkscape:pageopacity="0.0"
     inkscape:pagecheckerboard="0"
     inkscape:deskcolor="#d1d1d1"
     inkscape:zoom="1.7949219"
     inkscape:cx="104.46137"
     inkscape:cy="63.791077"
     inkscape:window-width="2094"
     inkscape:window-height="1778"
     inkscape:window-x="26"
     inkscape:window-y="23"
     inkscape:window-maximized="0"
     inkscape:current-layer="svg8" />
  <path
     id="path4"
     d="M 3.9521484 -0.0034179688 L -0.0018310547 0.00030517578 C -6.2644773 -0.0094881942 -10.124059 0.98983063 -11.178711 7.7518921 L -11.18988 11.664917 C -11.212149 13.93432 -11.22611 16.201305 -11.215942 18.470825 C -11.206624 20.094699 -11.20583 21.7168 -11.208496 23.340698 C -11.21886 26.730242 -11.222954 30.122793 -11.208496 33.512329 C -11.184554 37.916513 -11.170796 42.317827 -11.193604 46.722046 C -11.212315 50.159291 -11.221832 53.597862 -11.215942 57.035156 C -11.210925 58.677523 -11.207469 60.318505 -11.204773 61.960876 C -11.218315 64.317331 -11.229761 66.670962 -11.212219 69.027405 L -11.18988 71.197998 C -11.179273 75.502617 -11.136907 77.7564 -8.836853 81.414307 C -6.6726685 83.494705 -6.6721802 83.496582 -3.5276489 84.080078 L 0.13964844 84.020508 C 2.1697024 84.005836 4.1975763 83.98224 6.2269897 83.927429 C 7.6271296 83.88935 9.0298608 83.862124 10.43042 83.84552 C 20.225971 83.760401 27.33402 83.611843 35.327087 77.497559 C 40.50798 71.056449 42.667695 65.076782 42.69519 56.945801 L 42.657959 54.108765 C 42.654115 52.098996 42.645875 50.090755 42.639343 48.080994 C 42.607807 44.933986 42.578301 41.78626 42.568604 38.639099 C 42.564747 36.57384 42.559426 34.509027 42.549988 32.443787 L 42.531372 29.483887 L 42.520203 26.631958 L 42.490417 23.96991 C 42.437057 17.956925 40.810781 13.45033 37.326416 8.496521 C 29.797442 0.96754748 22.385898 0.10297127 12.157959 0.037536621 C 10.107532 0.050610801 8.0576393 0.058862442 6.0073242 0.030090332 L 3.9521484 -0.0034179688 z M 3.3266602 14.494507 L 22.32959 14.494507 C 28.404796 20.569712 28.497239 22.388236 28.565857 30.448181 L 28.591919 33.154907 C 28.605764 35.047974 28.613844 36.939601 28.621704 38.832703 C 28.638888 41.719094 28.685513 44.60665 28.729675 47.492737 C 28.739805 49.332572 28.748992 51.170586 28.755737 53.010437 L 28.807861 55.616638 C 28.787796 61.19912 27.972649 64.206458 24.328918 68.494995 C 18.060834 71.629038 10.334592 69.496521 3.3266602 69.496521 L 3.3266602 14.494507 z "
     transform="translate(139.671875,206.50390625)"
     style="opacity:0.94624196;fill:#424242;fill-opacity:1" />
  <path
     id="path4-5"
     d="m 204.2681,207.05799 -3.95398,0.004 c -6.26265,-0.01 -10.12223,0.98952 -11.17688,7.75158 l -0.0112,3.91303 c -0.0223,2.2694 -0.0362,4.53638 -0.0261,6.8059 0.009,1.62388 0.0101,3.24598 0.007,4.86988 -0.0104,3.38954 -0.0145,6.78209 0,10.17163 0.0239,4.40418 0.0377,8.8055 0.0149,13.20972 -0.0187,3.43724 -0.0282,6.87581 -0.0223,10.31311 0.005,1.64236 0.009,3.28334 0.0112,4.92572 -0.0135,2.35645 -0.025,4.71008 -0.007,7.06652 l 0.0223,2.1706 c 0.0106,4.30462 0.053,6.5584 2.35303,10.21631 2.16418,2.08039 2.16467,2.08227 5.3092,2.66577 l 3.6673,-0.0596 c 2.03005,-0.0147 4.05793,-0.0383 6.08734,-0.0931 1.40014,-0.0381 2.80287,-0.0653 4.20343,-0.0819 9.79555,-0.0851 16.9036,-0.23368 24.89667,-6.34796 5.18089,-6.44111 7.3406,-12.42078 7.3681,-20.55176 l -0.0372,-2.83704 c -0.004,-2.00977 -0.0121,-4.01801 -0.0186,-6.02777 -0.0315,-3.14701 -0.061,-6.29473 -0.0707,-9.44189 -0.004,-2.06526 -0.009,-4.13008 -0.0186,-6.19532 l -0.0186,-2.9599 -0.0112,-2.85192 -0.0298,-2.66205 c -0.0533,-6.01299 -1.67962,-10.51958 -5.16398,-15.47339 -7.52898,-7.52897 -14.94052,-8.39355 -25.16846,-8.45898 -2.05043,0.0131 -4.10032,0.0213 -6.15064,-0.007 z m -0.62549,14.49793 h 19.00293 c 6.07521,6.0752 6.16765,7.89373 6.23627,15.95367 l 0.0261,2.70673 c 0.0138,1.89306 0.0219,3.78469 0.0298,5.67779 0.0172,2.88639 0.0638,5.77395 0.10797,8.66004 0.0101,1.83983 0.0193,3.67785 0.0261,5.5177 l 0.0521,2.6062 c -0.0201,5.58248 -0.83521,8.58982 -4.47895,12.87835 -6.26808,3.13405 -13.99432,1.00153 -21.00225,1.00153 z"
     style="opacity:0.946242;fill:#424242;fill-opacity:1" />
  <path
     d="M0 0 C4.16346089 0.8496859 5.68727557 3.33356163 8.0625 6.625 C9.37802838 8.77243339 10.63611389 10.95592908 11.83984375 13.16796875 C12.17367569 13.77707596 12.50750763 14.38618317 12.85145569 15.01374817 C13.90716982 16.94335874 14.95373792 18.87775129 16 20.8125 C16.69666106 22.08952271 17.39392267 23.36621798 18.09179688 24.64257812 C19.77177702 27.71831171 21.44460044 30.79786199 23.1149292 33.87884521 C24.59441292 36.60519303 26.08047019 39.32794625 27.56640625 42.05078125 C28.05052979 42.93805908 28.53465332 43.82533691 29.03344727 44.73950195 C29.37303467 45.36171631 29.71262207 45.98393066 30.0625 46.625 C30.06660889 45.37364258 30.07071777 44.12228516 30.07495117 42.83300781 C30.09672973 38.18838358 30.15100618 33.54460805 30.21508789 28.90039062 C30.23827903 26.89070777 30.25266622 24.88090318 30.25805664 22.87109375 C30.26733807 19.98099817 30.30831012 17.09282011 30.35546875 14.203125 C30.3515361 13.30507141 30.34760345 12.40701782 30.34355164 11.48175049 C30.48875219 5.26831314 30.48875219 5.26831314 33.38012695 2.02636719 C37.06793685 0.09972399 39.12016368 0.45690035 43.0625 1.625 C45.5352824 4.00320084 46.0361373 5.40985657 46.45690918 8.84373474 C46.46532837 10.11660843 46.47374756 11.38948212 46.48242188 12.70092773 C46.49089142 13.40549103 46.49936096 14.11005432 46.50808716 14.83596802 C46.53144789 17.16036122 46.53247961 19.48409213 46.53125 21.80859375 C46.53835211 23.42757939 46.54605119 25.04656251 46.55432129 26.6655426 C46.56776388 30.05745441 46.5693359 33.44913347 46.56347656 36.84106445 C46.55758016 41.18366685 46.58816932 45.52515134 46.62859344 49.8675375 C46.6544674 53.21077979 46.6573482 56.55375277 46.65370178 59.89708138 C46.6553933 61.4978523 46.66503901 63.09863562 46.68284607 64.6993084 C46.7050324 66.94018835 46.6953393 69.17880424 46.67773438 71.41967773 C46.67978882 72.69334702 46.68184326 73.9670163 46.68395996 75.27928162 C45.89596154 79.52158356 44.4351917 81.01254839 41.0625 83.625 C37.625 84 37.625 84 34.0625 82.625 C28.7089716 77.30072586 25.5873437 69.10132135 22.19213867 62.42041016 C17.84861263 53.94607277 12.92875963 45.80582068 8.0625 37.625 C8.0531543 38.87635742 8.04380859 40.12771484 8.03417969 41.41699219 C7.99429518 46.0615595 7.92854059 50.70546335 7.85498047 55.34960938 C7.82676193 57.35928827 7.80555179 59.36907834 7.79150391 61.37890625 C7.77008665 64.26880849 7.72344297 67.1573729 7.671875 70.046875 C7.67003204 71.39395538 7.67003204 71.39395538 7.66815186 72.76824951 C7.52234466 78.9837465 7.52234466 78.9837465 5.21582031 82.20019531 C2.31638226 84.11868969 0.47320752 84.06040947 -2.9375 83.625 C-5.9375 81.625 -5.9375 81.625 -6.9375 78.625 C-7.04775971 76.27015201 -7.0965941 73.91229151 -7.11450195 71.55493164 C-7.12107315 70.83915451 -7.12764435 70.12337738 -7.13441467 69.38591003 C-7.15411445 67.01899102 -7.16580076 64.65213525 -7.17578125 62.28515625 C-7.17985678 61.47649046 -7.1839323 60.66782467 -7.18813133 59.83465385 C-7.20897459 55.55717093 -7.2232857 51.27971996 -7.23266602 47.00219727 C-7.24374693 42.58233686 -7.27817069 38.16297762 -7.31783772 33.74329472 C-7.34396005 30.34524082 -7.35235375 26.94730739 -7.35594749 23.54916191 C-7.36082224 21.91964762 -7.3724615 20.29013902 -7.39098549 18.66072273 C-7.41529244 16.38156221 -7.41442856 14.1037129 -7.4074707 11.82446289 C-7.41333694 10.5277919 -7.41920319 9.23112091 -7.42524719 7.89515686 C-6.9375 4.625 -6.9375 4.625 -5.09172058 2.21409607 C-2.9375 0.625 -2.9375 0.625 0 0 Z "
     fill="#3D82F0"
     transform="translate(258.9375,206.375)"
     id="path5"
     style="fill:#424242;fill-opacity:1" />
  <path
     d="M0 0 C1.24669968 -0.01210762 1.24669968 -0.01210762 2.51858521 -0.02445984 C4.27880772 -0.03829946 6.03905705 -0.04902217 7.79931641 -0.05688477 C10.4904258 -0.07410748 13.18030969 -0.11799412 15.87109375 -0.16210938 C17.58072013 -0.17223552 19.29035695 -0.18075187 21 -0.1875 C22.20642654 -0.21376213 22.20642654 -0.21376213 23.43722534 -0.24055481 C27.04670013 -0.2265504 29.18905199 -0.08589249 32.14501953 2.07348633 C34.15247493 4.9944097 34.1498326 6.76686057 33.6328125 10.23828125 C31.77938475 12.79777671 30.69524857 13.21746923 27.6328125 14.23828125 C25.1917349 14.32281995 22.78022037 14.35433911 20.33984375 14.3359375 C19.28080086 14.33381508 19.28080086 14.33381508 18.20036316 14.33164978 C15.94863624 14.32605889 13.69700929 14.31350813 11.4453125 14.30078125 C9.91731915 14.29576507 8.38932423 14.29120237 6.86132812 14.28710938 C3.11842022 14.27694395 -0.62427193 14.25736694 -4.3671875 14.23828125 C-4.3671875 20.50828125 -4.3671875 26.77828125 -4.3671875 33.23828125 C-2.42714844 33.18027344 -0.48710937 33.12226563 1.51171875 33.0625 C4.07289256 33.01559205 6.63409245 32.97009302 9.1953125 32.92578125 C11.11053711 32.86293945 11.11053711 32.86293945 13.06445312 32.79882812 C23.70716503 32.66061109 23.70716503 32.66061109 27.84765625 35.3828125 C34.42660116 42.12784578 34.15190849 48.74363258 34.1328125 57.67578125 C34.16117187 58.87783203 34.18953125 60.07988281 34.21875 61.31835938 C34.23213208 67.38378587 34.14530737 72.02776861 30.29492188 76.89086914 C25.12237217 81.08406858 20.47912602 81.69635243 14.09375 81.671875 C13.29047272 81.67711685 12.48719543 81.6823587 11.65957642 81.6877594 C9.97032829 81.69415426 8.28103547 81.6928756 6.59179688 81.68432617 C4.00831283 81.6757829 1.42701786 81.70466321 -1.15625 81.73632812 C-2.80208267 81.73793955 -4.44791925 81.73736373 -6.09375 81.734375 C-6.86361237 81.74560898 -7.63347473 81.75684296 -8.42666626 81.76841736 C-11.92983845 81.72284378 -13.9846561 81.51655763 -16.85302734 79.42993164 C-19.06374329 76.23006111 -18.91824567 74.02680616 -18.3671875 70.23828125 C-15.92135312 67.54732129 -14.44394329 67.24559307 -10.79199219 66.89770508 C-9.37426022 66.89817722 -7.95646959 66.9149598 -6.5390625 66.9453125 C-5.41555389 66.95167976 -5.41555389 66.95167976 -4.26934814 66.95817566 C-1.88492375 66.97492379 0.49864503 67.01256728 2.8828125 67.05078125 C4.50259193 67.06583316 6.12238465 67.07952068 7.7421875 67.09179688 C11.7063213 67.12225897 15.66861304 67.18098286 19.6328125 67.23828125 C19.6328125 60.63828125 19.6328125 54.03828125 19.6328125 47.23828125 C17.68117188 47.2846875 15.72953125 47.33109375 13.71875 47.37890625 C11.14845282 47.41642884 8.57813907 47.45282847 6.0078125 47.48828125 C4.08001953 47.53855469 4.08001953 47.53855469 2.11328125 47.58984375 C-9.67842621 47.71203761 -9.67842621 47.71203761 -14.3671875 43.23828125 C-19.42187979 37.48639003 -18.58432698 31.19206455 -18.6171875 23.92578125 C-18.6378125 22.79720703 -18.6584375 21.66863281 -18.6796875 20.50585938 C-18.72894239 10.04535119 -18.72894239 10.04535119 -15.3671875 5.23828125 C-10.18511582 0.56177754 -6.80914195 0.0622252 0 0 Z "
     fill="#3B80F0"
     transform="translate(331.3671875,206.76171875)"
     id="path6"
     style="fill:#424242;fill-opacity:1" />
  <path
     d="M0 0 C11.16856853 10.13272032 21.86433291 20.67156573 30.421875 33.140625 C31.08195557 34.0987207 31.08195557 34.0987207 31.75537109 35.07617188 C62.39549849 80.01359745 73.05864849 132.38813076 63.421875 186.140625 C53.37206818 232.64519145 25.63284641 276.75272459 -13.578125 304.140625 C-14.1772168 304.56762695 -14.77630859 304.99462891 -15.39355469 305.43457031 C-36.62558248 320.43153585 -61.18799148 331.18262035 -86.58740234 336.70263672 C-88.50340648 337.12418583 -90.4102589 337.58669313 -92.31640625 338.05078125 C-121.44502883 344.48465386 -156.5579789 341.56416017 -184.578125 332.140625 C-186.20157824 331.69741982 -187.82639277 331.25913952 -189.453125 330.828125 C-227.0962203 319.36874735 -263.33260535 292.51677615 -285.578125 260.140625 C-286.02349609 259.49657715 -286.46886719 258.8525293 -286.92773438 258.18896484 C-293.72424457 248.26371634 -299.6297023 238.10435416 -304.578125 227.140625 C-304.94679688 226.33028809 -305.31546875 225.51995117 -305.6953125 224.68505859 C-326.41036468 178.50196197 -327.5582091 124.43694296 -309.578125 77.140625 C-295.7873046 42.48845247 -272.28695929 10.6442626 -241.578125 -10.859375 C-240.73314453 -11.46289795 -240.73314453 -11.46289795 -239.87109375 -12.07861328 C-220.32308879 -25.98652036 -198.81430957 -35.91846282 -175.578125 -41.859375 C-174.57136719 -42.13523437 -173.56460938 -42.41109375 -172.52734375 -42.6953125 C-113.0119836 -57.97117368 -45.73373026 -40.38969044 0 0 Z M-152.578125 4.140625 C-153.79371094 4.35847656 -155.00929688 4.57632813 -156.26171875 4.80078125 C-170.01817357 7.33595872 -182.12401528 11.95881984 -194.578125 18.140625 C-195.56039062 18.6253125 -196.54265625 19.11 -197.5546875 19.609375 C-208.79596453 25.44058499 -218.41908542 33.47174808 -227.578125 42.140625 C-228.52429688 43.01074219 -229.47046875 43.88085938 -230.4453125 44.77734375 C-256.02001053 68.8210736 -271.10146306 103.92281482 -272.70019531 138.80395508 C-273.07852299 151.62493313 -272.3698154 163.62971618 -269.578125 176.140625 C-269.3615625 177.2646875 -269.145 178.38875 -268.921875 179.546875 C-261.96079946 213.68929313 -238.88956378 246.75365483 -210.03125 265.9609375 C-175.76446406 287.91126152 -137.31416737 296.68221432 -97.00097656 288.47607422 C-70.60756505 282.54176962 -47.05291125 269.85229266 -27.578125 251.140625 C-27.10665039 250.70024902 -26.63517578 250.25987305 -26.14941406 249.80615234 C-9.56194048 234.29249374 1.60672434 215.35994316 9.421875 194.140625 C9.6708252 193.53299316 9.91977539 192.92536133 10.17626953 192.29931641 C12.38005804 186.81824091 13.51623825 181.32017115 14.546875 175.515625 C14.71574219 174.60039062 14.88460938 173.68515625 15.05859375 172.7421875 C15.38316867 170.97363756 15.70169425 169.20396402 16.01342773 167.43310547 C16.32670503 165.67478279 16.6704382 163.9218635 17.02734375 162.171875 C18.81278971 148.45399315 17.84329112 133.70890496 15.421875 120.140625 C15.24446777 119.14119873 15.24446777 119.14119873 15.06347656 118.12158203 C8.62608554 83.38751675 -13.02075597 50.07694998 -41.765625 29.578125 C-44.00348687 28.04308117 -46.27489409 26.57543542 -48.578125 25.140625 C-49.15127441 24.78178223 -49.72442383 24.42293945 -50.31494141 24.05322266 C-58.70003232 18.88004 -67.43202764 14.78596691 -76.578125 11.140625 C-77.85816406 10.58761719 -77.85816406 10.58761719 -79.1640625 10.0234375 C-87.84677109 6.49009552 -97.1421705 5.11655312 -106.33862305 3.53295898 C-108.05181466 3.23282828 -109.75832914 2.89434934 -111.4609375 2.5390625 C-124.85089594 0.82756405 -139.3787723 1.34076231 -152.578125 4.140625 Z "
     fill="#061C60"
     transform="translate(370.578125,101.859375)"
     id="path2"
     style="fill:#424242;fill-opacity:1" />
  <path
     style="opacity:0.946242;fill:#3c81f0;fill-opacity:1;stroke-width:0.196974"
     d=""
     id="path10"
     transform="scale(1.90625)" />
  <text
     xml:space="preserve"
     transform="scale(1.90625)"
     id="text11"
     style="fill:#3c81f0;text-orientation:auto;text-align:start;writing-mode:lr-tb;direction:ltr;opacity:0.94624196;fill-opacity:1;white-space:pre;shape-inside:url(#rect11)" />
</svg>
